<svg xmlns="http://www.w3.org/2000/svg" xmlns:xlink="http://www.w3.org/1999/xlink" xml:space="preserve" width="437.297" height="325.192" viewBox="0 0 115.702 86.041"><title>Duper</title><defs><linearGradient id="a"><stop offset="0" style="stop-color:#715f4b;stop-opacity:1"/><stop offset="1" style="stop-color:#877059;stop-opacity:1"/></linearGradient><linearGradient xlink:href="#a" id="b" x1="105.863" x2="111.899" y1="175.207" y2="178.543" gradientUnits="userSpaceOnUse"/><linearGradient xlink:href="#a" id="c" x1="105.863" x2="111.899" y1="175.207" y2="178.543" gradientUnits="userSpaceOnUse"/></defs><g style="opacity:1" transform="translate(-63.024 -147.517)"><g style="opacity:1;stroke-width:.999999;stroke-dasharray:none"><path d="M81.948 214.858c2.5.015 3.88 4.887 1.207 5.65l-11.026 5.376c-2.818.043-5.375.68-8.337.22 0 0 3.618-6.886 7.02-8.695 3.073-1.633 11.136-2.55 11.136-2.55z" style="opacity:1;fill:#eccfbc;fill-opacity:1;stroke:#000;stroke-width:.762;stroke-miterlimit:2;stroke-dasharray:none;stroke-opacity:1"/><path d="M84.633 215.897c2.5.014 3.88 4.886 1.207 5.65l-11.026 5.375c-2.907.623-6.664.629-9.572-.192 0 0 3.646-6.693 7.049-8.502 3.072-1.633 12.342-2.331 12.342-2.331z" style="fill:#eccfbc;fill-opacity:1;stroke:#000;stroke-width:.762;stroke-miterlimit:2;stroke-dasharray:none;stroke-opacity:1"/><path d="M88.15 217.548c2.499.014 3.878 4.886 1.206 5.65l-11.026 5.375c-2.907.623-5.814-.002-8.721-.823 0 0 3.536-6.145 6.939-7.953 3.071-1.633 11.601-2.25 11.601-2.25z" style="opacity:1;fill:#eccfbc;fill-opacity:1;stroke:#000;stroke-width:.762;stroke-miterlimit:2;stroke-dasharray:none;stroke-opacity:1"/></g><path d="M122.334 212.476c-1.547 1.47 6.349 9.679 4.888 9.619-3.574-.147-6.728 1.487-9.077-1.241z" style="opacity:1;fill:#715f4b;stroke:#000;stroke-width:1;stroke-miterlimit:2;stroke-dasharray:none"/><path d="m80.268 171.368-6.455 13.338-1.157 14.22z" style="opacity:1;fill:#564739;fill-opacity:1;stroke:#000;stroke-width:1;stroke-miterlimit:2;stroke-dasharray:none;stroke-opacity:1"/><path d="m98.132 220.73-4.936 3.236h20.57l-3.292-3.566z" style="opacity:1;fill:#eccfbc;fill-opacity:1;stroke:none;stroke-width:.254;stroke-miterlimit:2;stroke-dasharray:none;stroke-opacity:1"/><path d="M65.203 149.39c.077-2.177 10.228-2.358 16.759 3.928 6.686.818 14.703-.362 20.032 2.488 4.49 2.4 7.405 6.774 9.689 11.39 8.38 16.944 11.81 31.522 10.7 47.248-.346 4.894-4.78 7.603-8.749 8.297-15.558-.817-31.997-.199-38.48-8.41-5.385-6.577-4.385-11.053-3.536-16.366 1.575-9.842 8.228-18.48 7.633-28.85-5.323-3.226-10.046-6.651-12.346-11.345-.945-1.929-1.875-3.497-1.702-8.38z" style="display:inline;fill:#715f4b;fill-opacity:1;stroke:#000;stroke-width:1;stroke-miterlimit:2;stroke-dasharray:none;stroke-opacity:1"/><g style="opacity:1;stroke-width:.999999;stroke-dasharray:none"><path d="M111.23 221.652c-3.104-.272-6.195 1.794-5.43 7.296l5.43 2.03 4.608-2.14c.132-2.772.058-6.776-4.608-7.186z" style="fill:#eccfbc;fill-opacity:1;stroke:#000;stroke-width:.762;stroke-miterlimit:2;stroke-dasharray:none;stroke-opacity:1"/><path d="M96.609 221.784c-3.105-.273-6.196 1.793-5.43 7.295l5.43 2.03 4.607-2.14c.133-2.772.058-6.775-4.607-7.185z" style="opacity:1;fill:#eccfbc;fill-opacity:1;stroke:#000;stroke-width:.762;stroke-miterlimit:2;stroke-dasharray:none;stroke-opacity:1"/><path d="M104.17 222.336c-3.554-.312-7.095 2.054-6.219 8.356l6.22 2.324 5.277-2.45c.151-3.175.066-7.76-5.277-8.23z" style="opacity:1;fill:#eccfbc;fill-opacity:1;stroke:#000;stroke-width:.762;stroke-miterlimit:2;stroke-dasharray:none;stroke-opacity:1"/></g><path d="M83.01 172.696c.88-3.872 28.622-5.898 30.506-6.023 11.762-.781 38.855 29.152 64.548 23.83-2.258 9.85-17.51 16.906-28.906 20.932-6.49 2.293-19.117 3.5-26.658.252-1.452-15.204-6.092-27.22-9.138-40.83-10.174-.423-20.018-.02-27.734 4.72z" style="opacity:1;fill:#3845c0;fill-opacity:1;stroke:#000;stroke-width:1;stroke-miterlimit:2;stroke-dasharray:none;stroke-opacity:1"/><path d="M95.683 198.89c-.82-4.289.246-8.253 1.944-12.108 1.178-.804 2.705 10.298 3.308 10.14.631-.167 1.33-11.178 2.217-10.232.608 1.384 1.176 2.599 1.094 4.444l-.046 4.953c-2.838.936-4.955 3.242-8.517 2.803z" style="display:inline;opacity:1;fill:#ebebeb;fill-opacity:1;stroke:#000;stroke-width:.762;stroke-miterlimit:2;stroke-dasharray:none;stroke-opacity:1"/><path d="M108.671 184.021c-3.965 4-5.706 10.223-8.248 15.646l1.284-2.879c-.17.479-.54.209-.712.194-.684-.057-2.501 2.668-5.265 1.785l.307 2.34c.318 11.73 11.402 11.64 15.253 11.588 6.057-2.28 11.156-8.721 13.224-28.346 0 0-1.078-2.605-2.03-3.601-3.182-3.332-8.266-5.82-8.266-5.82" style="display:inline;fill:#877059;fill-opacity:1;stroke:#000;stroke-width:.94720833;stroke-miterlimit:2;stroke-dasharray:none;stroke-opacity:1"/><path d="M84.305 157.221c1.22 1.6 2.01 1.38 2.903 1.416.68.028 5.35-.41 6.726-1.919" style="fill:#000;fill-opacity:1;stroke-width:1.24356;stroke-miterlimit:2;stroke-dasharray:none"/><path d="m89.261 151.256-2.946 3.699c5.579-1.847 10.45-3.002 13.159-3.11-4.107-.046-7.974.955-11.653 2.193z" style="fill:#000;fill-opacity:1;stroke-width:.254;stroke-miterlimit:2;stroke-dasharray:none"/><ellipse cx="152.825" cy="120.03" rx="5.868" ry="7.002" style="opacity:1;fill:#fff;fill-opacity:.353034;stroke:#000;stroke-width:.502864;stroke-miterlimit:2;stroke-dasharray:none;stroke-opacity:1" transform="matrix(.9474 .32003 -.4588 .88854 0 0)"/><path d="M68.767 161.086c-.052-.667-.093.64-.172-.175-.079-.816-.196-3.756.037-4.375 3.796 1.89 7.72 5.482 9.176 5.614 3.038.277 5.24.152 7.744 0l-2.458.813c.378-.125-4.378-.065-5.324-.213-1.584-.247-5.291-3.315-8.75-5.4-.285.967-.159 2.672-.253 3.736" style="fill:#000;fill-opacity:1;stroke-width:1.18291;stroke-miterlimit:2;stroke-dasharray:none"/><path d="m79.507 174.954 1.342 2.684c-1.805 2.595-3.756 5.07-7.365 4.485.957-3.054 2.305-6.013 6.023-7.169z" style="opacity:1;fill:#2d3799;fill-opacity:1;stroke:#000;stroke-width:.5;stroke-miterlimit:2;stroke-dasharray:none;stroke-opacity:1"/><path d="M82.175 172.107c-1.033.258-2.473.869-2.766 3.404.638 2.06 1.763 2.435 3.077 2.16-.759-2.014-.766-3.61-.311-5.564z" style="fill:#273086;fill-opacity:1;stroke:#000;stroke-width:.5;stroke-miterlimit:2;stroke-dasharray:none;stroke-opacity:1"/><path d="M82.351 172.075c1.21-.048 2.347-.281 2.937.89 1.58 3.137-.437 4.769-2.729 4.698-.96-1.706-.975-3.696-.208-5.588z" style="fill:#3845c0;fill-opacity:1;stroke:#000;stroke-width:.5;stroke-miterlimit:2;stroke-dasharray:none;stroke-opacity:1"/><path d="M85.726 174.332c2.872 2.132 3.343 4.794 4.19 6.842-2.095.091-4.277-.581-6.285-3.503 1.278-.65 2.626-1.656 2.095-3.339z" style="fill:#505bcc;fill-opacity:1;stroke:#000;stroke-width:.5;stroke-miterlimit:2;stroke-dasharray:none;stroke-opacity:1"/><path d="m114.127 175.144-6.648-3.007-5.004 8.184 6.286 3.587" style="fill:url(#b);fill-opacity:1;stroke:url(#c);stroke-width:.254;stroke-miterlimit:2;stroke-dasharray:none"/></g></svg>